<svg xmlns="http://www.w3.org/2000/svg" version="1.0" width="300px" height="300px">
  <defs>
    <linearGradient id="m" x1="1" y1="1" x2="0" y2="0">
      <stop offset="0" stop-color="#e50b41"/>
      <stop offset="1" stop-color="#5b589c"/>
    </linearGradient>
  </defs>
  <g transform="translate(0.000000,300.000000) scale(0.100000,-0.100000)">
    <path
      d="m1405 2469c-86-13-146-35-212-78-49-31-64-49-93-106-28-55-35-83-38-139-9-192 158-463 323-525 75-28
       165-28 242 1 125 47 265 231 309 408 8.0591 31.9764 11.9955 64.2907 12.0377 95.9766.12 90.1966-31.3154
       175.3011-89.0377 233.0234-86 86-290 136-454 110z"
      fill="url(#m)"
    />
    <path
      d="m7e2 1750c.014-150.0324 360.183-572.3438 650-650 150.0547-30.027 150.0463-30.0301 3e2.0 289.7756
       77.6451 650.015 499.9827 650 650 .011 70.0548-70.0111 149.9994-150
       150-60.0411-.015-110.125-70.0156-150-130-129.9011-200.0663-323.7176-390.362-5e2-390-155.7606.822-369.9188
        189.9912-5e2 390-40.07777 59.9164-90.01803 130.0059-150 130-79.99066-.022-149.97949-80.0234-150-150z"
      fill="#bfbfbf"/>
    <path
      d="m1370 740c-.01-74.97424.01-260.01091 130-260 129.9737.003 130.0006 184.95453 130 260 2e-4
      100.05416-.01 259.99011-130 260-130.0189-.0212-129.989-159.961-130-260z"
      fill="#bfbfbf"
    />
  </g>
</svg>
